<?xml version="1.0" encoding="UTF-8" standalone="no"?>
<svg
   width="31.086"
   height="48"
   viewBox="0 0 31.086 48"
   fill="none"
   version="1.1"
   id="svg1"
   sodipodi:docname="Logo.svg"
   inkscape:version="1.3 (0e150ed6c4, 2023-07-21)"
   xmlns:inkscape="http://www.inkscape.org/namespaces/inkscape"
   xmlns:sodipodi="http://sodipodi.sourceforge.net/DTD/sodipodi-0.dtd"
   xmlns="http://www.w3.org/2000/svg"
   xmlns:svg="http://www.w3.org/2000/svg">
  <defs
     id="defs1" />
  <sodipodi:namedview
     id="namedview1"
     pagecolor="#ffffff"
     bordercolor="#000000"
     borderopacity="0.25"
     inkscape:showpageshadow="2"
     inkscape:pageopacity="0.0"
     inkscape:pagecheckerboard="0"
     inkscape:deskcolor="#d1d1d1"
     inkscape:zoom="2.8991378"
     inkscape:cx="25.352365"
     inkscape:cy="10.865299"
     inkscape:window-width="1360"
     inkscape:window-height="697"
     inkscape:window-x="-8"
     inkscape:window-y="29"
     inkscape:window-maximized="1"
     inkscape:current-layer="svg1" />
  <path
     fill-rule="evenodd"
     clip-rule="evenodd"
     d="m 23.3958,23.6529 c -0.0434,0.2782 -0.1492,0.543 -0.3095,0.7746 -0.1603,0.2315 -0.3709,0.4237 -0.616,0.5623 -0.4937,0.3188 -0.9256,0.4782 -1.3626,0.6376 -0.9307,0.3214 -1.9103,0.6428 -2.9464,1.0156 -1.0926,0.3727 -2.0722,0.7455 -2.9463,1.0155 -1.0901,0.3728 -2.1262,0.6941 -3.1109,1.0669 -0.7408,0.3171 -1.4367,0.7302 -2.0696,1.229 -0.5887,0.5333 -1.1024,1.1439 -1.5272,1.8151 -0.437,0.7455 -0.7121,1.7071 -0.7121,2.828 0,2.2445 0.545,3.9516 1.6377,5.0186 1.0901,1.1235 3.1109,1.6557 6.106,1.6557 3.0544,0 5.1266,-0.5862 6.2218,-1.7611 1.0875,-1.175 1.6325,-2.8281 1.6325,-4.962 V 23.6529 Z M 15.5415,0 c 5.3476,0 9.2735,1.01553 11.7802,3.09802 2.5093,2.03106 3.7639,4.64317 3.7639,7.73858 v 26.3782 c 0,1.0669 -0.216,2.2419 -0.5965,3.5222 -0.3856,1.2855 -1.1466,2.4579 -2.3473,3.5222 -1.1441,1.0721 -2.7252,1.9797 -4.7434,2.6738 C 21.3802,47.6272 18.7629,48 15.5441,48 12.3304,48 9.708,47.6272 7.6923,46.933 5.6767,46.2389 4.093,45.3313 2.9489,44.2592 1.8846,43.3001 1.0783,42.089 0.6042,40.737 0.2185,39.4592 0,38.2843 0,37.2174 V 33.001 c 0,-2.2445 0.599,-4.327 1.7997,-6.1447 1.2006,-1.8665 2.8897,-3.1468 5.0725,-3.949 1.0901,-0.3728 2.3447,-0.7455 3.7613,-1.2263 1.4192,-0.4834 2.7253,-0.9641 4.0364,-1.3883 1.3112,-0.4294 2.4553,-0.8587 3.4349,-1.2341 0.5911,-0.2365 1.1915,-0.4492 1.7996,-0.6376 l 0.9822,-0.4808 c 0.3856,-0.2134 0.7635,-0.5347 1.1466,-0.9615 0.3805,-0.4242 0.707,-0.905 0.9821,-1.4398 0.2907,-0.579 0.4404,-1.2186 0.4371,-1.8665 V 11.9627 C 23.4564,11.3361 23.3249,10.716 23.0667,10.145 22.8508,9.5023 22.4137,8.91612 21.8147,8.38393 21.2156,7.84917 20.3955,7.42239 19.416,7.09845 18.4338,6.78222 17.1278,6.62025 15.6521,6.62025 c -3.0544,0 -5.0726,0.59132 -6.1627,1.8151 -0.9255,1.06953 -1.4705,2.40385 -1.5785,3.89755 0,0.3214 -0.2726,0.5348 -0.6016,0.5348 l -6.6511,0.108 C 0.5002,12.9764 0.3483,12.9146 0.2356,12.8039 0.123,12.6931 0.0586,12.5423 0.0566,12.3844 V 10.8418 C 0.0566,9.3429 0.3317,7.95458 0.9307,6.62025 1.5323,5.28334 2.4604,4.16497 3.7125,3.20086 4.9671,2.24189 6.6048,1.44231 8.5665,0.907552 10.4767,0.26481 12.8214,0 15.5466,0 Z"
     fill="#0a3871"
     id="path1" />
</svg>
